<svg width="96" height="59" viewBox="0 0 96 59" fill="none" xmlns="http://www.w3.org/2000/svg">
<path d="M17.0645 34.9967C11.9098 34.3162 7.38654 32.4315 4.44891 29.7401C1.51129 27.0488 0.388988 23.7612 1.31876 20.5709C2.24853 17.3805 5.15768 14.537 9.43252 12.64C13.7074 10.743 19.0136 9.9409 24.232 10.4029C25.5162 8.61117 27.3255 6.97987 29.5695 5.59043C31.9305 4.13533 34.7352 2.98087 37.8231 2.19316C40.911 1.40546 44.2213 1 47.5645 1C50.9077 1 54.218 1.40546 57.3059 2.19316C60.3938 2.98087 63.1985 4.13533 65.5595 5.59043C67.8035 6.97987 69.6128 8.61117 70.897 10.4029C76.1154 9.9409 81.4217 10.743 85.6965 12.64C89.9713 14.537 92.8805 17.3805 93.8102 20.5709C94.74 23.7612 93.6177 27.0488 90.6801 29.7401C87.7425 32.4315 83.2192 34.3162 78.0645 34.9967V57.2779H17.0645V34.9967Z" stroke="#548C2F" stroke-width="2" stroke-linecap="round" stroke-linejoin="round"/>
</svg>
