<svg width="122" height="75" viewBox="0 0 122 75" fill="none" xmlns="http://www.w3.org/2000/svg">
<path d="M30.5 43.3437C25.3453 42.6633 20.8221 40.7786 17.8845 38.0872C14.9468 35.3958 13.8245 32.1082 14.7543 28.9179C15.6841 25.7276 18.5932 22.884 22.8681 20.987C27.1429 19.09 32.4492 18.2879 37.6675 18.75C38.9517 16.9582 40.761 15.3269 43.005 13.9375C45.366 12.4824 48.1708 11.3279 51.2587 10.5402C54.3466 9.75251 57.6569 9.34705 61 9.34705C64.3432 9.34705 67.6535 9.75251 70.7414 10.5402C73.8293 11.3279 76.6341 12.4824 78.995 13.9375C81.2391 15.3269 83.0484 16.9582 84.3325 18.75C89.5509 18.2879 94.8572 19.09 99.132 20.987C103.407 22.884 106.316 25.7276 107.246 28.9179C108.176 32.1082 107.053 35.3958 104.116 38.0872C101.178 40.7786 96.6548 42.6633 91.5 43.3437V65.625H30.5V43.3437Z" stroke="#E47B06" stroke-width="2" stroke-linecap="round" stroke-linejoin="round"/>
<path d="M30.5 53.125H91.5" stroke="#E47B06" stroke-width="2" stroke-linecap="round" stroke-linejoin="round"/>
</svg>
